<svg id="Layer_2" data-name="Layer 2" xmlns="http://www.w3.org/2000/svg" viewBox="0 0 1000 600"><defs><style>.cls-1{fill:#fff;}.cls-2{fill:#333;}</style></defs><path class="cls-1" d="M89.94,533.85a70.81,70.81,0,0,1-70.72-70.73V155.06A70.81,70.81,0,0,1,89.94,84.33H398a70.8,70.8,0,0,1,70.72,70.73V241.5a1,1,0,0,0,.5.86l69.25,40a30.89,30.89,0,0,1,0,53.5l-69.25,40a1,1,0,0,0-.5.86v86.44A70.8,70.8,0,0,1,398,533.85Z"/><path class="cls-2" d="M398,85.33a69.8,69.8,0,0,1,69.72,69.73V241.5a2,2,0,0,0,1,1.73l69.25,40A29.89,29.89,0,0,1,538,335l-69.25,40a2,2,0,0,0-1,1.73v86.44A69.8,69.8,0,0,1,398,532.85H89.94a69.81,69.81,0,0,1-69.72-69.73V155.06A69.81,69.81,0,0,1,89.94,85.33H398m0-2H89.94a71.81,71.81,0,0,0-71.72,71.73V463.12a71.81,71.81,0,0,0,71.72,71.73H398a71.81,71.81,0,0,0,71.72-71.73V376.68l69.25-40a31.89,31.89,0,0,0,0-55.23l-69.25-40V155.06A71.81,71.81,0,0,0,398,83.33Z"/><path class="cls-1" d="M105.74,508.46a61.7,61.7,0,0,1-61.63-61.63V171.35a61.71,61.71,0,0,1,61.63-61.64H381.22a61.71,61.71,0,0,1,61.64,61.64v77.3a2.51,2.51,0,0,0,1.25,2.16L506,286.56a26,26,0,0,1,0,45.06l-61.92,35.75a2.5,2.5,0,0,0-1.25,2.16v77.3a61.7,61.7,0,0,1-61.64,61.63Z"/><path class="cls-2" d="M381.22,112.21a59.21,59.21,0,0,1,59.14,59.14v77.3a5,5,0,0,0,2.5,4.33l61.92,35.75a23.52,23.52,0,0,1,0,40.73L442.86,365.2a5,5,0,0,0-2.5,4.33v77.3A59.2,59.2,0,0,1,381.22,506H105.74a59.2,59.2,0,0,1-59.13-59.13V171.35a59.2,59.2,0,0,1,59.13-59.14H381.22m0-5H105.74a64.21,64.21,0,0,0-64.13,64.14V446.83A64.2,64.2,0,0,0,105.74,511H381.22a64.21,64.21,0,0,0,64.14-64.13v-77.3l61.92-35.74a28.52,28.52,0,0,0,0-49.39l-61.92-35.75v-77.3a64.22,64.22,0,0,0-64.14-64.14Z"/><path class="cls-2" d="M577,250.11q-5.64-9.84-5.64-28.22v-8.65h14.31v10.38q0,14.72,7.84,14.71a6.34,6.34,0,0,0,5.84-3.57q2-3.57,2-11.57a47.21,47.21,0,0,0-2.75-16.77q-2.76-7.24-10.18-17.41-9.36-13-13.07-23.46a70.87,70.87,0,0,1-3.71-23.69q0-17.94,5.78-27.79t16.78-9.84q10.86,0,16.43,9.84t5.57,28.22v6.28h-14.3v-7.79q0-7.78-1.93-11.35a6.09,6.09,0,0,0-5.64-3.57q-7.56,0-7.56,14.49a41.34,41.34,0,0,0,2.82,15.35q2.82,7.14,10.25,17.31,9.48,13,13.06,23.57t3.58,24.88q0,18.6-5.85,28.54t-17,9.95Q582.66,260,577,250.11Z"/><path class="cls-2" d="M629.91,250.22q-5.71-9.74-5.71-27.47V141.43q0-17.73,5.71-27.47t16.57-9.73q10.86,0,16.58,9.73t5.7,27.47v16h-14.3V139.92q0-14.07-7.57-14.06t-7.56,14.06v84.56q0,13.85,7.56,13.85t7.57-13.85V201.34h14.3v21.41q0,17.75-5.7,27.47T646.48,260Q635.62,260,629.91,250.22Z"/><path class="cls-2" d="M689.53,106.39H710l15.68,151.4H710.58l-2.75-30.06v.43h-17.2l-2.75,29.63h-14ZM706,207.61l-6.74-74.83H699l-6.6,74.83Z"/><path class="cls-2" d="M733,106.39h19L766.69,197H767V106.39h13.48v151.4H764.91L746.75,147.27h-.28V257.79H733Z"/><path class="cls-2" d="M813.73,106.39h40V128h-24.9V170.2h19.53v21.62H828.86v66H813.73Z"/><path class="cls-2" d="M865.86,250q-5.91-9.94-5.92-28.11v-79.6q0-18.16,5.92-28.11t17-10q11.15,0,17.06,10t5.91,28.11v79.6q0,18.17-5.91,28.11T882.91,260Q871.78,260,865.86,250Zm24.89-26.6V140.78q0-14.92-7.84-14.92t-7.84,14.92V223.4q0,14.92,7.84,14.93T890.75,223.4Z"/><path class="cls-2" d="M916.06,106.39h22.42q11.68,0,17.06,8.54t5.36,26.28v9.3q0,23.58-9.9,29.85v.43q5.5,2.6,7.77,10.6T961,212.8v26.61q0,6.48.27,10.49a39.29,39.29,0,0,0,1.38,7.89h-15.4a51.25,51.25,0,0,1-1.11-6.92c-.18-2.16-.27-6.06-.27-11.68V211.51c0-6.93-.71-11.75-2.13-14.5s-3.88-4.1-7.36-4.1h-5.23v64.88H916.06Zm20.63,64.89a7.48,7.48,0,0,0,6.81-3.68q2.28-3.67,2.27-12.33V143.59q0-8.22-1.85-11.89a6.16,6.16,0,0,0-5.85-3.68h-6.88v43.26Z"/><path class="cls-2" d="M574,279.33h37.24l16.61,163.15h.47L644.9,279.33h37.24v228H657.47V334.69H657L638,507.28H616.2l-19-172.59h-.48V507.28H574Z"/><path class="cls-2" d="M701.6,279.33h71.16V311.9H727.69v60.24h35.82V404.7H727.69v70h45.07v32.56H701.6Z"/><path class="cls-2" d="M787.71,279.33h32.73l25.39,136.45h.47V279.33h23.25v228H842.74l-31.31-166.4H811v166.4H787.71Z"/><path class="cls-2" d="M898,495.72q-10-14.82-10-42.5V279.33h26.09v176.5q0,11.71,3.44,16.93a11.91,11.91,0,0,0,19.69,0q3.43-5.2,3.44-16.93V279.33h25.15V453.22q0,27.69-10,42.5T927,510.54Q908,510.54,898,495.72Z"/></svg>