<svg id="Layer_1" data-name="Layer 1" xmlns="http://www.w3.org/2000/svg" viewBox="0 0 1000 600"><defs><style>.cls-1,.cls-2{fill:none;stroke:#333;}.cls-1{stroke-miterlimit:10;stroke-width:11px;}.cls-2{stroke-linecap:round;stroke-linejoin:round;stroke-width:5.29px;}.cls-3{fill:#333;}.cls-4{fill:#fff;}</style></defs><rect class="cls-1" x="37.76" y="40.47" width="924.48" height="518.4" rx="49.13"/><polyline class="cls-2" points="570.89 217.04 570.89 117.43 671.95 117.43"/><polyline class="cls-2" points="909.45 217.04 909.45 117.43 808.39 117.43"/><polyline class="cls-2" points="820.02 494.57 909.45 494.57 909.45 381.99"/><polyline class="cls-2" points="660.32 494.57 570.89 494.57 570.89 381.99"/><path class="cls-3" d="M610.31,174.92q0-14.5,6.9-22.26t20.72-7.76q13.82,0,20.72,7.76t6.91,22.26v3.75H647.82v-4.95q0-6.48-2.47-9.12a10.32,10.32,0,0,0-13.81,0q-2.47,2.64-2.47,9.12a21.14,21.14,0,0,0,2.72,10.83,45.15,45.15,0,0,0,6.83,8.87q4.08,4.19,8.78,8.35a84.39,84.39,0,0,1,8.78,9.13A46.57,46.57,0,0,1,663,222.15,37.19,37.19,0,0,1,665.73,237q0,14.5-7.08,22.26T637.76,267q-13.82,0-20.89-7.75T609.79,237v-7.33h17.74v8.52q0,6.49,2.64,9a11.07,11.07,0,0,0,14.16,0q2.64-2.55,2.64-9a21.15,21.15,0,0,0-2.73-10.83,45,45,0,0,0-6.82-8.86q-4.09-4.19-8.78-8.36a81.55,81.55,0,0,1-8.78-9.12A46.47,46.47,0,0,1,613,189.75,37.11,37.11,0,0,1,610.31,174.92Z"/><path class="cls-3" d="M730.87,221.13V237q0,14.5-7.07,22.26T702.91,267q-13.81,0-20.89-7.75T674.94,237V174.92q0-14.5,7.08-22.26t20.89-7.76q13.82,0,20.89,7.76t7.07,22.26v11.59H713.14V173.72q0-6.48-2.64-9.12a10.78,10.78,0,0,0-14.16,0q-2.64,2.64-2.64,9.12v64.46q0,6.49,2.64,9a11.07,11.07,0,0,0,14.16,0q2.64-2.55,2.64-9V221.13Z"/><path class="cls-3" d="M803,265.64H784.08L780.84,244h-23l-3.24,21.66H737.35l19.1-119.37h27.46ZM760.2,227.78h18.08l-9-60.37Z"/><path class="cls-3" d="M828.42,179.18v86.46H811.54V146.27h23.53l19.27,71.45V146.27h16.71V265.64H851.78Z"/><path class="cls-3" d="M671.52,410.23l19.25-127.61h39.29V462.36h-26.7V333.46l-19.52,128.9h-26.7l-21.06-127.1v127.1H611.44V282.62h39.28Z"/><path class="cls-3" d="M778.84,358.37h38.77V384H778.84v52.64h48.78v25.68h-77V282.62h77V308.3H778.84Z"/><path class="cls-3" d="M848.68,422.56l-3.6-65v-75h28.25v75l-3.6,65Zm24.13,12.58v27.22H845.6V435.14Z"/><rect class="cls-3" x="84.57" y="93.45" width="416.19" height="416.19" rx="40.29"/><rect class="cls-4" x="93.7" y="102.58" width="397.93" height="397.93" rx="31.63"/></svg>