<svg id="Layer_1" data-name="Layer 1" xmlns="http://www.w3.org/2000/svg" viewBox="0 0 1748 2480"><defs><style>.cls-1{fill:#333;}.cls-2{fill:none;stroke:#f26322;stroke-linecap:round;stroke-linejoin:round;stroke-width:1.93px;}.cls-3{fill:#f26322;}</style></defs><path class="cls-1" d="M1333.31,479.64c0,256.18-207.67,463.86-463.85,463.86S405.61,735.82,405.61,479.64,613.28,15.79,869.46,15.79,1333.31,223.47,1333.31,479.64ZM869.46,67.89c-227.4,0-411.75,184.35-411.75,411.75S642.06,891.4,869.46,891.4s411.76-184.35,411.76-411.76S1096.87,67.89,869.46,67.89Z"/><path class="cls-2" d="M1457.46,839.12h74.16c87,0,157.75,50.71,157.75,113V2350.07c0,62.32-70.77,113-157.75,113H215.41c-87,0-157.75-50.71-157.75-113V952.16c0-62.33,70.77-113,157.75-113H282.5"/><rect class="cls-1" x="129.8" y="890.82" width="1487.43" height="1520.59" rx="80.56"/><path class="cls-1" d="M652.68,624.51V605.88c17.88-4,19.06-7.55,19.06-52.86l-.24-196.35C654.56,443.26,636,538.92,619,624.51h-7.77c-15.3-82.06-32-175.71-49-263.81-3.06,158.08-3.06,189.3-3.06,207.42.24,27.19,5,34.24,22.59,37.76v18.63H523.48V605.88c13.42-2.51,19.54-8,21.42-38.26.94-15.1,1.88-43.8,7.29-209.94.71-24.17-.94-37.76-21.17-41.79V297.26h50.82l45.42,222,45.65-222h49.66v18.63c-18.83,4-21,8.05-20.48,48.33L704,553c.23,45.31,1.17,47.33,20.23,52.86v18.63Z"/><path class="cls-1" d="M870.82,538.92c-1.17,13.6-7.76,71.49-9.88,85.59H738.81V606.39c21.41-4.53,22.82-7,22.82-49.34V364.72c0-42.79-2.82-45.81-18.82-48.83V297.26h76.48c24.71,0,32.94-.5,36.24-1,.23,9.07,1.41,50.35,2.35,81.56l-9.18,2.52c-2.12-17.12-6.12-37.76-10.12-46.82-4.23-10.07-7.29-13.09-19.29-13.09H804c-8.94,0-9.88,1-9.88,18.12V443.77h23.06c13.18,0,15.53-7.55,19.06-43.3h9.18V512.74h-9.18c-3.77-37.25-5.65-43.3-19.3-43.3H794.11V556c0,34.74.47,45.31,15.06,45.82h16.71c13.17,0,16.7-3.53,21.88-17.12,5.88-14.6,10.59-33.23,14.36-50.35Z"/><path class="cls-1" d="M1048.72,315.89c-14.35,4-18.82,10.57-19.53,33.23-.7,19.63-1.41,36.75-1.41,80.55V630.05H1014.6L916.47,378.32V492.1c0,43.8.47,63.44,1.18,78,.94,22.15,5.88,33.73,23.3,35.74v18.63H882.59V605.88c13.41-2.51,19.29-10.07,20.71-33.73.94-18.12,1.41-36.25,1.41-80V372.78c0-16.61-.47-27.69-4.94-40.78-4.24-12.59-9.89-14.1-19.77-16.11V297.26h45.89l89.65,223V429.67c0-43.8-.23-60.41-.94-79-.7-21.65-4.47-32.22-24-34.74V297.26h58.12Z"/><path class="cls-1" d="M1226.87,315.89c-15.07,3-19.07,12.59-20,30.71-.7,15.1-1.17,32.22-1.17,67.46v66c0,43.3-3.3,87.1-16.71,117.3-10.83,24.17-27.53,34.74-44.24,34.74-15.53,0-31.06-7-42.12-26.18-13.65-22.15-20.24-52.86-20.24-109.25V369.26c0-46.32-2.12-49.85-20-53.37V297.26h72.71v18.63c-17.65,3.52-19.77,7.05-19.77,53.37V503.18c0,56.38,13,93.64,38.12,93.64,28,0,40.24-44.3,40.24-119.82V414.06c0-34.74-.7-52.86-1.17-68-.94-23.16-7.53-28.2-24-30.21V297.26h58.37Z"/><path class="cls-3" d="M198.44,2258.12l73.59-39.7a1.84,1.84,0,0,0,.58-2.63,2.11,2.11,0,0,0-2.44-1L190.3,2242.3c-4.31,1.49-6.24,6.34-4.3,10.85s7,6.95,11.31,5.47A8.81,8.81,0,0,0,198.44,2258.12Z"/><path class="cls-3" d="M278,2356l48.19-68.34a1.84,1.84,0,0,1,2.68-.26,2.11,2.11,0,0,1,.67,2.53l-36.8,76c-2,4.1-7,5.43-11.28,3s-6.08-7.77-4.09-11.88A9.25,9.25,0,0,1,278,2356Z"/><path class="cls-3" d="M234.23,2321.37l64.46-65.51a1.71,1.71,0,0,0-.12-2.38,1.67,1.67,0,0,0-2.17-.27l-74.37,54c-3.77,2.75-4.32,8.33-1.21,12.46s8.68,5.27,12.46,2.53A8.35,8.35,0,0,0,234.23,2321.37Z"/><polygon class="cls-1" points="1248.34 807.27 490.58 807.27 538.11 883.73 490.58 962.21 1248.34 962.21 1200.81 883.73 1248.34 807.27"/></svg>